<?xml version="1.0" encoding="UTF-8"?>
<!DOCTYPE svg PUBLIC "-//W3C//DTD SVG 1.1//EN" "http://www.w3.org/Graphics/SVG/1.1/DTD/svg11.dtd">
<!-- Creator: CorelDRAW -->
<svg xmlns="http://www.w3.org/2000/svg" xml:space="preserve" width="279.4mm" height="215.9mm" style="shape-rendering:geometricPrecision; text-rendering:geometricPrecision; image-rendering:optimizeQuality; fill-rule:evenodd; clip-rule:evenodd"
viewBox="0 0 279.4 215.9"
 xmlns:xlink="http://www.w3.org/1999/xlink">
 <defs>
  <style type="text/css">
   <![CDATA[
    .str0 {stroke:black;stroke-width:0.0762}
    .fil0 {fill:black}
    .fil1 {fill:white}
   ]]>
  </style>
 </defs>
 <g id="Layer_x0020_1">
  <metadata id="CorelCorpID_0Corel-Layer"/>
  <g id="_227646496">
   <rect id="_227649208" class="fil0 str0" x="19.6382" y="11.9005" width="48.0247" height="48.0247"/>
   <rect id="_227649112" class="fil1 str0" x="19.6382" y="59.9252" width="48.0247" height="48.0247"/>
   <rect id="_227649016" class="fil0 str0" x="19.6382" y="107.95" width="48.0247" height="48.0247"/>
   <rect id="_227648920" class="fil1 str0" x="19.6382" y="155.975" width="48.0247" height="48.0247"/>
   <rect id="_227648824" class="fil1 str0" x="67.6629" y="11.9005" width="48.0247" height="48.0247"/>
   <rect id="_227648728" class="fil0 str0" x="67.6629" y="59.9252" width="48.0247" height="48.0247"/>
   <rect id="_227648632" class="fil1 str0" x="67.6629" y="107.95" width="48.0247" height="48.0247"/>
   <rect id="_227648536" class="fil0 str0" x="67.6629" y="155.975" width="48.0247" height="48.0247"/>
   <rect id="_227648440" class="fil0 str0" x="115.688" y="11.9005" width="48.0247" height="48.0247"/>
   <rect id="_227648344" class="fil1 str0" x="115.688" y="59.9252" width="48.0247" height="48.0247"/>
   <rect id="_227648248" class="fil0 str0" x="115.688" y="107.95" width="48.0247" height="48.0247"/>
   <rect id="_227648152" class="fil1 str0" x="115.688" y="155.975" width="48.0247" height="48.0247"/>
   <rect id="_227648056" class="fil1 str0" x="163.712" y="11.9005" width="48.0247" height="48.0247"/>
   <rect id="_227647960" class="fil0 str0" x="163.712" y="59.9252" width="48.0247" height="48.0247"/>
   <rect id="_227647864" class="fil1 str0" x="163.712" y="107.95" width="48.0247" height="48.0247"/>
   <rect id="_227647768" class="fil0 str0" x="163.712" y="155.975" width="48.0247" height="48.0247"/>
   <rect id="_227646712" class="fil0 str0" x="211.737" y="11.9005" width="48.0247" height="48.0247"/>
   <rect id="_227646664" class="fil1 str0" x="211.737" y="59.9252" width="48.0247" height="48.0247"/>
   <rect id="_227646352" class="fil0 str0" x="211.737" y="107.95" width="48.0247" height="48.0247"/>
   <rect id="_227646568" class="fil1 str0" x="211.737" y="155.975" width="48.0247" height="48.0247"/>
  </g>
 </g>
</svg>
